<?xml version="1.0" encoding="UTF-8" standalone="no"?>
<!-- Created with Inkscape (http://www.inkscape.org/) -->

<svg
   width="105.83333mm"
   height="105.83334mm"
   viewBox="0 0 105.83333 105.83334"
   version="1.1"
   id="svg586"
   xmlns="http://www.w3.org/2000/svg"
   xmlns:svg="http://www.w3.org/2000/svg">
  <defs
     id="defs583" />
  <g
     id="layer1"
     transform="translate(-4.9462729,-5.1479471)">
    <path
       id="path1"
       d="M 4.9462729,58.064613 V 110.98128 H 57.862939 110.7796 V 58.064613 5.1479471 H 57.862939 4.9462729 V 58.064613 M 39.500856,28.366986 c 3.203045,0.271992 5.668168,0.754857 7.408333,1.450711 5.293254,2.116402 7.621323,5.21626 8.536516,11.3665 0.251619,1.690687 0.203994,33.315801 -0.05212,34.713331 -0.274637,1.49754 -0.490802,2.27515 -1.044575,3.75708 -0.844549,2.26008 -3.066785,4.70774 -5.432954,5.98382 -0.235214,0.12674 -0.520964,0.28258 -0.635,0.34608 -0.1143,0.0638 -0.398198,0.19288 -0.631031,0.28733 -0.232833,0.0945 -0.566208,0.23601 -0.740833,0.31459 -0.616215,0.27729 -2.080948,0.65511 -3.862917,0.99642 -1.754981,0.33603 -26.222589,0.52018 -26.542999,0.19976 -0.174361,-0.17436 -0.186003,-59.149186 -0.01164,-59.474888 0.151342,-0.283105 19.569377,-0.233098 23.009225,0.05927 m 59.690793,-0.01508 c 0.03175,0.130969 0.04445,3.095625 0.02831,6.588125 l -0.0291,6.35 -18.864792,0.02672 -18.864791,0.02672 V 34.728628 28.11378 h 18.836216 18.836481 l 0.05768,0.238125 M 35.832937,43.698267 c -0.09657,0.247121 -0.423598,1.235075 -0.726811,2.195513 -0.713052,2.259541 -1.393824,4.363773 -1.970352,6.090973 -0.253735,0.759883 -0.461168,1.46341 -0.461168,1.563687 0,0.356923 -0.484452,0.388673 -5.933546,0.388673 -2.964921,0 -5.390621,0.03969 -5.390621,0.08837 0,0.04842 0.273844,0.274108 0.608542,0.501121 0.334698,0.227277 0.632354,0.442383 0.661458,0.478366 0.0291,0.03598 0.318294,0.25109 0.642938,0.477838 0.757766,0.529696 2.334418,1.665552 3.804443,2.740554 0.636588,0.465667 1.610784,1.175544 2.165086,1.57771 0.554037,0.401902 1.008327,0.806715 1.009121,0.899584 0.0019,0.201348 -0.38735,1.507596 -0.595048,1.997868 -0.08096,0.19103 -0.147373,0.422011 -0.147373,0.513028 0,0.09102 -0.06456,0.315647 -0.14314,0.499268 -0.07885,0.183357 -0.395287,1.119188 -0.703262,2.079625 -1.051455,3.280573 -1.491721,4.603753 -1.592792,4.787633 -0.101865,0.18548 -0.141287,0.7157 -0.05318,0.7157 0.10795,0 2.438929,-1.66502 3.592248,-2.5654 0.168275,-0.131497 0.573087,-0.425449 0.899583,-0.653256 0.706967,-0.493183 2.242873,-1.603904 2.392627,-1.73011 0.38735,-0.327025 2.092854,-1.507067 2.177785,-1.507067 0.05741,0 0.400315,0.216694 0.76253,0.481542 0.36195,0.264848 1.277143,0.929481 2.033852,1.476639 0.756708,0.547159 1.425839,1.037696 1.486693,1.090084 0.06112,0.05239 0.361686,0.271462 0.668073,0.486833 0.646642,0.454555 2.626519,1.911355 2.900098,2.133865 0.102394,0.0836 0.230981,0.15187 0.28575,0.15187 0.0545,0 0.137319,0.0606 0.183886,0.13494 0.357187,0.56912 1.023408,0.55853 0.728662,-0.0116 -0.09234,-0.1786 -0.167746,-0.39661 -0.167746,-0.48498 0,-0.0881 -0.06667,-0.31671 -0.147902,-0.50774 -0.193675,-0.45535 -0.690562,-1.94019 -0.80645,-2.411413 -0.09525,-0.386556 -0.864129,-2.744523 -1.104371,-3.386666 -0.250031,-0.668338 -1.012825,-3.119173 -1.011766,-3.250142 0.0019,-0.173831 0.354806,-0.496888 1.102518,-1.008856 0.343694,-0.235215 0.700882,-0.490802 0.79375,-0.568061 0.250032,-0.207433 1.979084,-1.464468 2.708805,-1.969558 0.34925,-0.241565 1.026318,-0.728133 1.50442,-1.081087 0.478102,-0.352955 1.299634,-0.950119 1.825625,-1.326886 0.525992,-0.376767 0.956204,-0.722048 0.956204,-0.767292 0,-0.04524 -2.416968,-0.08281 -5.371041,-0.08361 -6.34021,-0.0019 -5.771092,0.08096 -6.060281,-0.882385 -0.124884,-0.41619 -0.346604,-1.090084 -0.49239,-1.497542 -0.14605,-0.407458 -0.306123,-0.907521 -0.355335,-1.11125 -0.04948,-0.203729 -0.282046,-0.918104 -0.516996,-1.5875 -0.23495,-0.669396 -0.428361,-1.300956 -0.430213,-1.403614 -0.0016,-0.102659 -0.05054,-0.269346 -0.108743,-0.370417 -0.112713,-0.196056 -0.846402,-2.450835 -0.846667,-2.602177 0,-0.04921 -0.06826,-0.239713 -0.151606,-0.423333 -0.08334,-0.183357 -0.166688,-0.424657 -0.185209,-0.536311 -0.0598,-0.360098 -0.24077,-0.283898 -0.420687,0.177006 m 63.358711,7.936934 c 0.03175,0.130969 0.04445,3.071813 0.02858,6.535208 l -0.02937,6.297084 -18.864792,0.02672 -18.864791,0.02672 v -6.561931 -6.561931 h 18.836216 18.836481 l 0.05768,0.238125 m -0.07488,23.172205 c 0.197908,0.19791 0.182033,12.81906 -0.0164,12.98363 -0.105568,0.0876 -5.115454,0.11192 -18.864791,0.0923 l -18.721387,-0.0267 -0.02752,-6.45584 c -0.01508,-3.5507 -0.0045,-6.51536 0.02328,-6.58812 0.0725,-0.18971 37.41711,-0.195 37.606817,-0.005"
       stroke="none"
       fill="#e41c2c"
       fill-rule="evenodd"
       style="stroke-width:0.264583" />
  </g>
</svg>
